<svg xmlns="http://www.w3.org/2000/svg" viewBox="0 0 900 700" role="img" aria-labelledby="title desc">
  <title id="title">Fetecart still life</title><desc id="desc">A warm abstract still life with a vase, leaves and ceramic bowl.</desc>
  <defs><linearGradient id="bg" x1="0" y1="0" x2="1" y2="1"><stop stop-color="#ead9c4"/><stop offset="1" stop-color="#c6d4c3"/></linearGradient><linearGradient id="vase" x1="0" y1="0" x2="1" y2="1"><stop stop-color="#f5a174"/><stop offset="1" stop-color="#bd5f45"/></linearGradient><filter id="shadow"><feGaussianBlur stdDeviation="18"/></filter></defs>
  <rect width="900" height="700" fill="url(#bg)"/><circle cx="730" cy="80" r="170" fill="#f8e8c5" opacity=".6"/><ellipse cx="450" cy="626" rx="335" ry="35" fill="#7d7164" opacity=".2" filter="url(#shadow)"/>
  <path d="M485 505 C478 425 474 331 501 274 L550 274 C575 340 568 425 580 505 Q537 544 485 505Z" fill="url(#vase)"/><ellipse cx="525" cy="275" rx="25" ry="8" fill="#a9513e"/><path d="M526 275 C515 190 456 128 424 82" fill="none" stroke="#344e3d" stroke-width="8" stroke-linecap="round"/><path d="M526 245 C576 177 624 155 665 130" fill="none" stroke="#344e3d" stroke-width="8" stroke-linecap="round"/><path d="M477 190 C425 176 382 143 369 99 C422 91 467 121 477 190Z" fill="#607d60"/><path d="M576 193 C603 140 650 111 698 116 C683 168 642 197 576 193Z" fill="#47694e"/><path d="M513 153 C490 113 494 72 519 43 C550 78 550 115 513 153Z" fill="#73916e"/>
  <path d="M177 534 Q275 453 379 534 L365 590 Q267 635 177 580Z" fill="#c87950"/><ellipse cx="278" cy="531" rx="101" ry="36" fill="#e5a57b"/><ellipse cx="278" cy="529" rx="70" ry="21" fill="#8c5a48"/><ellipse cx="278" cy="524" rx="54" ry="14" fill="#f1c19b" opacity=".75"/>
  <path d="M693 526 Q759 485 815 528 L808 575 Q753 604 700 577Z" fill="#e9d9ba"/><ellipse cx="754" cy="526" rx="62" ry="22" fill="#fff0d1"/><ellipse cx="754" cy="524" rx="44" ry="13" fill="#b6c6a9"/>
  <path d="M0 625 Q250 585 900 615 L900 700 L0 700Z" fill="#d6c7ad" opacity=".55"/>
</svg>
